<?xml version="1.0" standalone="no"?>
<!DOCTYPE svg PUBLIC "-//W3C//DTD SVG 20010904//EN"
 "http://www.w3.org/TR/2001/REC-SVG-20010904/DTD/svg10.dtd">
<svg version="1.0" xmlns="http://www.w3.org/2000/svg"
 width="220.000000pt" height="220.000000pt" viewBox="0 0 220.000000 220.000000"
 preserveAspectRatio="xMidYMid meet">
<metadata>
Created by potrace 1.11, written by Peter Selinger 2001-2013
</metadata>
<g transform="translate(0.000000,220.000000) scale(0.100000,-0.100000)"
fill="#000000" stroke="none">
<path d="M1035 2066 c-31 -29 -36 -41 -34 -70 3 -31 -1 -39 -36 -64 -22 -16
-199 -144 -393 -285 -323 -235 -355 -256 -378 -247 -65 25 -134 -24 -134 -94
0 -29 32 -71 67 -88 29 -14 15 25 219 -602 83 -258 104 -333 95 -345 -35 -49
-40 -68 -30 -105 21 -75 110 -94 163 -34 l30 33 489 0 490 0 15 -23 c42 -65
131 -61 166 7 17 32 12 78 -11 103 -15 16 -10 35 57 240 126 389 218 672 225
695 3 13 17 26 31 29 31 8 74 59 74 89 0 63 -54 110 -112 99 -18 -3 -38 -7
-45 -8 -7 0 -187 126 -401 282 -379 275 -390 284 -390 316 0 60 -26 89 -90
101 -25 4 -37 -1 -67 -29z m5 -146 c0 -5 10 -10 23 -12 21 -3 22 -7 23 -116 1
-105 -1 -114 -20 -124 -65 -35 -80 -103 -34 -155 20 -22 20 -22 -24 -155 l-44
-133 -147 0 -147 0 -11 27 c-29 70 -136 77 -173 11 -11 -19 -12 -19 -120 6
-75 18 -110 31 -112 41 -1 8 -5 26 -8 40 -7 24 14 41 326 267 183 133 358 260
388 281 49 36 80 44 80 22z m534 -265 c328 -238 385 -283 380 -300 -3 -11 -6
-28 -7 -38 -1 -16 -13 -23 -54 -32 -10 -2 -55 -12 -101 -23 l-83 -20 -15 24
c-38 58 -137 50 -165 -14 l-12 -28 -143 1 c-79 0 -145 3 -147 5 -6 9 -78 245
-77 258 0 6 4 12 10 12 19 0 42 61 36 96 -7 33 -46 74 -72 74 -11 0 -14 25
-14 115 0 113 1 116 24 125 13 5 27 14 31 20 4 6 10 10 15 8 4 -2 181 -129
394 -283z m-412 -298 c21 -66 36 -122 34 -126 -4 -5 -169 -7 -198 -2 -3 0 12
57 35 126 39 119 43 126 66 123 23 -3 29 -15 63 -121z m-792 -114 c36 -8 73
-17 82 -19 9 -3 22 -20 28 -39 19 -57 83 -81 143 -54 21 10 35 2 138 -72 63
-45 116 -83 118 -85 2 -2 -16 -63 -41 -136 -43 -130 -45 -132 -79 -140 -42
-11 -79 -50 -79 -85 0 -14 7 -39 15 -57 l16 -32 -81 -120 c-44 -65 -85 -119
-90 -118 -6 1 -23 2 -39 2 -23 2 -30 8 -35 29 -4 16 -47 150 -95 298 -184 561
-195 599 -181 603 8 3 23 15 34 28 23 24 31 24 146 -3z m1603 3 c13 -13 28
-25 35 -27 8 -3 -16 -89 -73 -264 -47 -143 -114 -352 -151 -465 l-66 -205 -38
0 c-34 -1 -41 4 -71 49 -19 28 -38 55 -42 61 -5 5 -26 37 -47 69 l-38 59 20
28 c16 21 19 36 15 65 -8 48 -32 73 -78 80 l-38 6 -44 135 -44 134 114 85 c99
73 116 83 134 73 33 -17 68 -20 92 -8 31 16 57 50 57 76 0 18 12 24 98 45 129
31 138 32 165 4z m-1024 -52 c6 -6 -51 -184 -60 -190 -4 -2 -57 33 -118 77
-117 85 -133 109 -77 119 33 6 249 1 255 -6z m298 -99 c18 -55 33 -104 33
-110 0 -5 -41 -39 -91 -74 -104 -73 -84 -75 -207 16 -56 41 -72 58 -67 71 4 9
20 59 37 110 l30 93 116 -3 117 -3 32 -100z m276 85 c4 -16 -7 -29 -49 -60
-30 -22 -79 -58 -110 -81 -30 -22 -57 -39 -58 -37 -4 4 -66 188 -66 194 0 2
62 4 139 4 131 0 139 -1 144 -20z m-536 -286 c43 -30 78 -59 78 -64 0 -10
-203 -160 -215 -160 -4 0 -13 7 -20 15 -10 11 -4 39 30 140 23 69 43 125 46
125 2 0 39 -25 81 -56z m328 -1 c65 -205 64 -201 47 -216 -15 -14 -28 -7 -131
68 l-113 84 82 60 c45 34 85 61 89 61 4 0 16 -26 26 -57z m-100 -164 c110 -79
114 -83 113 -119 -1 -62 40 -101 109 -104 22 -1 40 -20 104 -114 l77 -114 -22
-44 c-19 -41 -24 -44 -61 -45 -22 0 -240 -1 -485 -2 l-445 -2 -17 44 -17 45
78 115 c72 106 81 116 112 119 78 6 110 36 112 107 2 35 8 41 107 115 58 43
109 79 113 79 5 1 60 -36 122 -80z"/>
</g>
</svg>
